<svg xmlns="http://www.w3.org/2000/svg" viewBox="0 0 32 32" shape-rendering="crispEdges">
<rect x="7" y="4" width="1" height="1" fill="#009688"/>
<rect x="8" y="4" width="1" height="1" fill="#009688"/>
<rect x="9" y="4" width="1" height="1" fill="#009688"/>
<rect x="10" y="4" width="1" height="1" fill="#009688"/>
<rect x="11" y="4" width="1" height="1" fill="#009688"/>
<rect x="12" y="4" width="1" height="1" fill="#009688"/>
<rect x="13" y="4" width="1" height="1" fill="#009688"/>
<rect x="14" y="4" width="1" height="1" fill="#009688"/>
<rect x="15" y="4" width="1" height="1" fill="#009688"/>
<rect x="16" y="4" width="1" height="1" fill="#009688"/>
<rect x="17" y="4" width="1" height="1" fill="#009688"/>
<rect x="18" y="4" width="1" height="1" fill="#009688"/>
<rect x="19" y="4" width="1" height="1" fill="#009688"/>
<rect x="20" y="4" width="1" height="1" fill="#009688"/>
<rect x="21" y="4" width="1" height="1" fill="#009688"/>
<rect x="22" y="4" width="1" height="1" fill="#009688"/>
<rect x="23" y="4" width="1" height="1" fill="#009688"/>
<rect x="24" y="4" width="1" height="1" fill="#009688"/>
<rect x="25" y="4" width="1" height="1" fill="#009688"/>
<rect x="5" y="5" width="1" height="1" fill="#009688"/>
<rect x="6" y="5" width="1" height="1" fill="#009688"/>
<rect x="7" y="5" width="1" height="1" fill="#009688"/>
<rect x="8" y="5" width="1" height="1" fill="#009688"/>
<rect x="9" y="5" width="1" height="1" fill="#009688"/>
<rect x="10" y="5" width="1" height="1" fill="#009688"/>
<rect x="11" y="5" width="1" height="1" fill="#009688"/>
<rect x="12" y="5" width="1" height="1" fill="#009688"/>
<rect x="13" y="5" width="1" height="1" fill="#009688"/>
<rect x="14" y="5" width="1" height="1" fill="#009688"/>
<rect x="15" y="5" width="1" height="1" fill="#009688"/>
<rect x="16" y="5" width="1" height="1" fill="#009688"/>
<rect x="17" y="5" width="1" height="1" fill="#009688"/>
<rect x="18" y="5" width="1" height="1" fill="#009688"/>
<rect x="19" y="5" width="1" height="1" fill="#009688"/>
<rect x="20" y="5" width="1" height="1" fill="#009688"/>
<rect x="21" y="5" width="1" height="1" fill="#009688"/>
<rect x="22" y="5" width="1" height="1" fill="#009688"/>
<rect x="23" y="5" width="1" height="1" fill="#009688"/>
<rect x="24" y="5" width="1" height="1" fill="#009688"/>
<rect x="25" y="5" width="1" height="1" fill="#009688"/>
<rect x="26" y="5" width="1" height="1" fill="#009688"/>
<rect x="27" y="5" width="1" height="1" fill="#009688"/>
<rect x="5" y="6" width="1" height="1" fill="#009688"/>
<rect x="6" y="6" width="1" height="1" fill="#009688"/>
<rect x="26" y="6" width="1" height="1" fill="#009688"/>
<rect x="27" y="6" width="1" height="1" fill="#009688"/>
<rect x="4" y="7" width="1" height="1" fill="#009688"/>
<rect x="5" y="7" width="1" height="1" fill="#009688"/>
<rect x="27" y="7" width="1" height="1" fill="#009688"/>
<rect x="28" y="7" width="1" height="1" fill="#009688"/>
<rect x="4" y="8" width="1" height="1" fill="#009688"/>
<rect x="5" y="8" width="1" height="1" fill="#009688"/>
<rect x="27" y="8" width="1" height="1" fill="#009688"/>
<rect x="28" y="8" width="1" height="1" fill="#009688"/>
<rect x="4" y="9" width="1" height="1" fill="#009688"/>
<rect x="5" y="9" width="1" height="1" fill="#009688"/>
<rect x="27" y="9" width="1" height="1" fill="#009688"/>
<rect x="28" y="9" width="1" height="1" fill="#009688"/>
<rect x="4" y="10" width="1" height="1" fill="#009688"/>
<rect x="5" y="10" width="1" height="1" fill="#009688"/>
<rect x="27" y="10" width="1" height="1" fill="#009688"/>
<rect x="28" y="10" width="1" height="1" fill="#009688"/>
<rect x="4" y="11" width="1" height="1" fill="#009688"/>
<rect x="5" y="11" width="1" height="1" fill="#009688"/>
<rect x="27" y="11" width="1" height="1" fill="#009688"/>
<rect x="28" y="11" width="1" height="1" fill="#009688"/>
<rect x="4" y="12" width="1" height="1" fill="#009688"/>
<rect x="5" y="12" width="1" height="1" fill="#009688"/>
<rect x="27" y="12" width="1" height="1" fill="#009688"/>
<rect x="28" y="12" width="1" height="1" fill="#009688"/>
<rect x="4" y="13" width="1" height="1" fill="#009688"/>
<rect x="5" y="13" width="1" height="1" fill="#009688"/>
<rect x="27" y="13" width="1" height="1" fill="#009688"/>
<rect x="28" y="13" width="1" height="1" fill="#009688"/>
<rect x="4" y="14" width="1" height="1" fill="#009688"/>
<rect x="5" y="14" width="1" height="1" fill="#009688"/>
<rect x="27" y="14" width="1" height="1" fill="#009688"/>
<rect x="28" y="14" width="1" height="1" fill="#009688"/>
<rect x="4" y="15" width="1" height="1" fill="#009688"/>
<rect x="5" y="15" width="1" height="1" fill="#009688"/>
<rect x="27" y="15" width="1" height="1" fill="#009688"/>
<rect x="28" y="15" width="1" height="1" fill="#009688"/>
<rect x="4" y="16" width="1" height="1" fill="#009688"/>
<rect x="5" y="16" width="1" height="1" fill="#009688"/>
<rect x="27" y="16" width="1" height="1" fill="#009688"/>
<rect x="28" y="16" width="1" height="1" fill="#009688"/>
<rect x="4" y="17" width="1" height="1" fill="#009688"/>
<rect x="5" y="17" width="1" height="1" fill="#009688"/>
<rect x="27" y="17" width="1" height="1" fill="#009688"/>
<rect x="28" y="17" width="1" height="1" fill="#009688"/>
<rect x="4" y="18" width="1" height="1" fill="#009688"/>
<rect x="5" y="18" width="1" height="1" fill="#009688"/>
<rect x="27" y="18" width="1" height="1" fill="#009688"/>
<rect x="28" y="18" width="1" height="1" fill="#009688"/>
<rect x="4" y="19" width="1" height="1" fill="#009688"/>
<rect x="5" y="19" width="1" height="1" fill="#009688"/>
<rect x="27" y="19" width="1" height="1" fill="#009688"/>
<rect x="28" y="19" width="1" height="1" fill="#009688"/>
<rect x="4" y="20" width="1" height="1" fill="#009688"/>
<rect x="5" y="20" width="1" height="1" fill="#009688"/>
<rect x="27" y="20" width="1" height="1" fill="#009688"/>
<rect x="28" y="20" width="1" height="1" fill="#009688"/>
<rect x="4" y="21" width="1" height="1" fill="#009688"/>
<rect x="5" y="21" width="1" height="1" fill="#009688"/>
<rect x="27" y="21" width="1" height="1" fill="#009688"/>
<rect x="28" y="21" width="1" height="1" fill="#009688"/>
<rect x="4" y="22" width="1" height="1" fill="#009688"/>
<rect x="5" y="22" width="1" height="1" fill="#009688"/>
<rect x="27" y="22" width="1" height="1" fill="#009688"/>
<rect x="28" y="22" width="1" height="1" fill="#009688"/>
<rect x="4" y="23" width="1" height="1" fill="#009688"/>
<rect x="5" y="23" width="1" height="1" fill="#009688"/>
<rect x="27" y="23" width="1" height="1" fill="#009688"/>
<rect x="28" y="23" width="1" height="1" fill="#009688"/>
<rect x="4" y="24" width="1" height="1" fill="#009688"/>
<rect x="5" y="24" width="1" height="1" fill="#009688"/>
<rect x="27" y="24" width="1" height="1" fill="#009688"/>
<rect x="28" y="24" width="1" height="1" fill="#009688"/>
<rect x="4" y="25" width="1" height="1" fill="#009688"/>
<rect x="5" y="25" width="1" height="1" fill="#009688"/>
<rect x="27" y="25" width="1" height="1" fill="#009688"/>
<rect x="28" y="25" width="1" height="1" fill="#009688"/>
<rect x="5" y="26" width="1" height="1" fill="#009688"/>
<rect x="6" y="26" width="1" height="1" fill="#009688"/>
<rect x="26" y="26" width="1" height="1" fill="#009688"/>
<rect x="27" y="26" width="1" height="1" fill="#009688"/>
<rect x="5" y="27" width="1" height="1" fill="#009688"/>
<rect x="6" y="27" width="1" height="1" fill="#009688"/>
<rect x="7" y="27" width="1" height="1" fill="#009688"/>
<rect x="8" y="27" width="1" height="1" fill="#009688"/>
<rect x="9" y="27" width="1" height="1" fill="#009688"/>
<rect x="10" y="27" width="1" height="1" fill="#009688"/>
<rect x="11" y="27" width="1" height="1" fill="#009688"/>
<rect x="12" y="27" width="1" height="1" fill="#009688"/>
<rect x="13" y="27" width="1" height="1" fill="#009688"/>
<rect x="14" y="27" width="1" height="1" fill="#009688"/>
<rect x="15" y="27" width="1" height="1" fill="#009688"/>
<rect x="16" y="27" width="1" height="1" fill="#009688"/>
<rect x="17" y="27" width="1" height="1" fill="#009688"/>
<rect x="18" y="27" width="1" height="1" fill="#009688"/>
<rect x="19" y="27" width="1" height="1" fill="#009688"/>
<rect x="20" y="27" width="1" height="1" fill="#009688"/>
<rect x="21" y="27" width="1" height="1" fill="#009688"/>
<rect x="22" y="27" width="1" height="1" fill="#009688"/>
<rect x="23" y="27" width="1" height="1" fill="#009688"/>
<rect x="24" y="27" width="1" height="1" fill="#009688"/>
<rect x="25" y="27" width="1" height="1" fill="#009688"/>
<rect x="26" y="27" width="1" height="1" fill="#009688"/>
<rect x="27" y="27" width="1" height="1" fill="#009688"/>
<rect x="7" y="28" width="1" height="1" fill="#009688"/>
<rect x="8" y="28" width="1" height="1" fill="#009688"/>
<rect x="9" y="28" width="1" height="1" fill="#009688"/>
<rect x="10" y="28" width="1" height="1" fill="#009688"/>
<rect x="11" y="28" width="1" height="1" fill="#009688"/>
<rect x="12" y="28" width="1" height="1" fill="#009688"/>
<rect x="13" y="28" width="1" height="1" fill="#009688"/>
<rect x="14" y="28" width="1" height="1" fill="#009688"/>
<rect x="15" y="28" width="1" height="1" fill="#009688"/>
<rect x="16" y="28" width="1" height="1" fill="#009688"/>
<rect x="17" y="28" width="1" height="1" fill="#009688"/>
<rect x="18" y="28" width="1" height="1" fill="#009688"/>
<rect x="19" y="28" width="1" height="1" fill="#009688"/>
<rect x="20" y="28" width="1" height="1" fill="#009688"/>
<rect x="21" y="28" width="1" height="1" fill="#009688"/>
<rect x="22" y="28" width="1" height="1" fill="#009688"/>
<rect x="23" y="28" width="1" height="1" fill="#009688"/>
<rect x="24" y="28" width="1" height="1" fill="#009688"/>
<rect x="25" y="28" width="1" height="1" fill="#009688"/>
</svg>
